<?xml version="1.0" standalone="no"?>
<!DOCTYPE svg PUBLIC "-//W3C//DTD SVG 20010904//EN"
 "http://www.w3.org/TR/2001/REC-SVG-20010904/DTD/svg10.dtd">
<svg version="1.0" xmlns="http://www.w3.org/2000/svg"
 width="800.000000pt" height="800.000000pt" viewBox="0 0 800.000000 800.000000"
 preserveAspectRatio="xMidYMid meet">
<metadata>
Created by potrace 1.14, written by Peter Selinger 2001-2017
</metadata>
<g transform="translate(0.000000,800.000000) scale(0.100000,-0.100000)"
fill="#000000" stroke="none">
<path d="M0 4000 l0 -4000 4000 0 4000 0 0 4000 0 4000 -4000 0 -4000 0 0
-4000z m2789 576 c35 -32 27 -84 -41 -275 -95 -263 -116 -280 -339 -289 l-136
-5 -88 -243 c-92 -255 -116 -300 -174 -337 -35 -21 -46 -22 -268 -22 -225 0
-233 1 -254 22 -36 36 -28 81 65 334 47 130 86 239 86 243 0 3 -44 6 -97 6
-170 1 -223 23 -223 91 0 27 106 333 134 387 8 15 28 40 44 55 60 57 55 57
688 54 557 -2 583 -3 603 -21z m783 -3 c14 -15 22 -35 22 -57 0 -19 -72 -232
-164 -485 -178 -493 -176 -481 -100 -481 53 0 68 8 86 42 9 16 82 213 163 436
179 490 170 469 211 509 60 59 91 65 328 61 203 -3 212 -4 234 -25 14 -15 22
-35 22 -57 0 -19 -72 -232 -164 -485 -178 -493 -176 -481 -100 -481 53 0 68 8
86 42 9 16 82 213 163 436 179 490 170 469 211 509 60 59 91 65 328 61 204 -3
212 -4 234 -26 16 -16 22 -33 22 -60 -2 -41 -208 -621 -257 -719 -86 -174
-236 -304 -427 -369 -48 -17 -87 -19 -325 -19 -268 0 -270 0 -320 25 -44 22
-85 66 -98 103 -2 7 -18 0 -43 -20 -55 -43 -150 -89 -212 -102 -83 -17 -515
-14 -585 4 -114 30 -170 86 -187 189 -14 89 3 155 130 507 145 399 140 387
176 423 62 62 86 66 326 64 210 -3 218 -4 240 -25z m3066 7 c47 -29 43 -68
-27 -263 -67 -188 -79 -212 -118 -249 -44 -41 -77 -50 -225 -55 l-136 -6 -82
-226 c-94 -258 -108 -288 -150 -327 -50 -48 -78 -52 -308 -53 l-214 -1 -30 30
c-40 41 -39 50 67 338 47 129 85 235 85 237 0 1 -59 4 -130 7 -112 4 -135 8
-158 25 -42 32 -36 89 27 263 64 172 80 206 118 242 61 58 47 57 673 58 556 0
576 -1 608 -20z"/>
</g>
</svg>
